<?xml version="1.0" encoding="UTF-8" standalone="no"?>
<!-- Created with Inkscape (http://www.inkscape.org/) -->

<svg
   width="100"
   height="100"
   viewBox="0 0 26.458332 26.458333"
   version="1.1"
   id="svg5"
   xmlns="http://www.w3.org/2000/svg">
  <defs
     id="defs2" />
  <rect
     className="svg-border"
     style="fill:none;stroke-linecap:round;stroke-linejoin:round;stroke-dasharray:none;stroke-opacity:1;paint-order:stroke fill markers"
     id="rect113"
     width="23.296812"
     height="23.29681"
     x="1.5807587"
     y="1.5807604"
     ry="5.4730878" />
  <path
     id="rect6117-8"
     style="stroke:none;stroke-linecap:round;stroke-linejoin:round;-inkscape-stroke:none;paint-order:stroke fill markers"
     d="M 8.7829262 3.7351724 C 6.6529748 3.7351724 4.9040933 5.4825022 4.9040933 7.612455 L 4.9040933 14.653369 C 4.9040933 16.783322 6.6529748 18.530135 8.7829262 18.530135 L 9.2361285 18.530135 L 9.2361285 18.846394 C 9.2361285 20.976347 10.985526 22.72316 13.115478 22.72316 L 17.675923 22.72316 C 19.805876 22.72316 21.554757 20.976347 21.554756 18.846394 L 21.554756 11.807031 C 21.554756 9.6770782 19.805876 7.928198 17.675923 7.928198 L 17.222721 7.928198 L 17.222721 7.612455 C 17.222721 5.4825022 15.473841 3.7351724 13.343888 3.7351724 L 8.7829262 3.7351724 z M 8.7829262 5.8523558 L 13.343888 5.8523558 C 14.337822 5.8523558 15.105021 6.618521 15.105021 7.612455 L 15.105021 7.928198 L 15.105021 10.045381 L 15.105021 11.558467 L 15.105021 14.653369 C 15.105021 15.647303 14.337822 16.412951 13.343888 16.412951 L 12.866398 16.412951 L 11.353312 16.412951 L 9.2361285 16.412951 L 8.7829262 16.412951 C 7.788992 16.412951 7.0207609 15.647303 7.0207599 14.653369 L 7.0207599 7.612455 C 7.0207599 6.618521 7.788992 5.8523559 8.7829262 5.8523558 z M 17.222721 10.045381 L 17.675923 10.045381 C 18.669857 10.045381 19.437573 10.813096 19.437573 11.807031 L 19.437573 18.846394 C 19.437573 19.840329 18.669857 20.608044 17.675923 20.608044 L 13.115478 20.608044 C 12.121544 20.608044 11.353312 19.840329 11.353312 18.846394 L 11.353312 18.530135 L 13.343888 18.530135 C 15.473841 18.530135 17.222721 16.783322 17.222721 14.653369 L 17.222721 10.045381 z " />
  
</svg>
