<?xml version="1.0" encoding="UTF-8" standalone="no"?>
<!-- Created with Inkscape (http://www.inkscape.org/) -->

<svg
   width="100"
   height="100"
   viewBox="0 0 26.458332 26.458333"
   version="1.1"
   id="svg5"
   xmlns="http://www.w3.org/2000/svg">
  <defs
     id="defs2" />
  <rect
     className="svg-border"
     style="fill:none;stroke-linecap:round;stroke-linejoin:round;stroke-dasharray:none;stroke-opacity:1;paint-order:stroke fill markers"
     id="rect113"
     width="23.296812"
     height="23.29681"
     x="1.5807587"
     y="1.5807604"
     ry="5.4730878" />
  <path
     id="path817"
     style="stroke:none;stroke-width:1.21344"
     d="m 3.3225258,13.118326 c 0,5.459991 4.446962,9.906327 9.9069532,9.906327 5.459992,1e-6 9.906328,-4.446336 9.906328,-9.906327 0,-5.2068149 -4.0437,-9.6844977 -9.906474,-9.684648 C 7.3665585,3.4335276 3.3225262,7.9113 3.3225258,13.118326 Z M 13.229916,5.5612098 c 4.581334,5.947e-4 7.558068,2.9750478 7.558079,7.5570122 1.1e-5,4.581965 -2.976411,7.55636 -7.558396,7.556363 -4.5819854,3e-6 -7.5563807,-2.974394 -7.556348,-7.556581 3.28e-5,-4.5821869 2.9753316,-7.5573888 7.556665,-7.5567942 z" />
  <path
     id="path2205"
     style="stroke:none;stroke-width:1.16445;paint-order:stroke fill markers"
     d="m 18.378009,7.6766206 -5.285301,3.9924654 -3.7821583,-1.295674 3.9541253,5.454954 c 1.628392,-2.075888 1.812848,-2.70497 5.113334,-8.1517454 z" />
</svg>
