<?xml version="1.0" encoding="UTF-8" standalone="no"?>
<!-- Created with Inkscape (http://www.inkscape.org/) -->

<svg
   width="100"
   height="100"
   viewBox="0 0 26.458332 26.458333"
   version="1.1"
   id="svg5"
   xmlns="http://www.w3.org/2000/svg">
  <defs
     id="defs2" />
  <rect
      className="svg-border"
     style="fill:none;stroke-linecap:round;stroke-linejoin:round;stroke-dasharray:none;stroke-opacity:1;paint-order:stroke fill markers"
     id="rect113"
     width="23.296812"
     height="23.29681"
     x="1.5807587"
     y="1.5807604"
     ry="5.4730878" />
  <path
     id="path1170"
     style="stroke:none;stroke-width:2.11667;stroke-linecap:round;stroke-linejoin:round;paint-order:stroke fill markers"
     d="m 7.0464713,7.0464702 a 8.7436934,8.7436934 0 0 0 -1.1e-6,12.3653918 l -0.6825808,0.682581 6.2101006,1.932641 -1.933005,-6.209736 -0.6825819,0.682581 a 4.6257892,4.6257892 0 0 1 9e-7,-6.5415261 4.6257892,4.6257892 0 0 1 2.353955,-1.2591939 L 11.084955,4.7568266 A 8.7436934,8.7436934 0 0 0 7.0464713,7.0464702 Z m 6.8378707,-2.6152217 1.933006,6.2097355 0.682581,-0.6825811 a 4.6257892,4.6257892 0 0 1 10e-7,6.5415261 4.6257892,4.6257892 0 0 1 -2.353956,1.259195 l 1.227403,3.942382 a 8.7436934,8.7436934 0 0 0 4.038485,-2.289645 8.7436934,8.7436934 0 0 0 0,-12.365391 l 0.682581,-0.6825808 z" />
</svg>
