<?xml version="1.0" encoding="UTF-8" standalone="no"?>
<!-- Created with Inkscape (http://www.inkscape.org/) -->

<svg
   width="100"
   height="100"
   viewBox="0 0 26.458332 26.458333"
   version="1.1"
   id="svg5"
   xmlns="http://www.w3.org/2000/svg">
  <defs
     id="defs2" />
  <g
     id="layer1">
    <rect
           className="svg-border"
       style="fill:none;stroke-linecap:round;stroke-linejoin:round;stroke-dasharray:none;stroke-opacity:1;paint-order:stroke fill markers"
       id="rect113"
       width="23.296812"
       height="23.29681"
       x="1.5807587"
       y="1.5807604"
       ry="5.4730878" />
    <g
       transform="matrix(6.329074,0,0,6.329074,13.222408,13.229165)"
       id="g1484"
       style="fill:none;fill-opacity:1">
      <path
         style="fill:none;fill-opacity:1;stroke-width:0.264583;stroke-opacity:1"
         d="m 0.75007,-0.10922 0.15275,-0.02224 0.01416,-3.8e-4 0.17542,0.05862 V 0.07322 L 0.91698,0.13184 0.90282,0.13146 0.75007,0.10922 0.69004,0.31364 0.83057,0.37751 0.8427,0.38485 0.95857,0.529 0.8794,0.65219 0.70014,0.60667 0.68843,0.59869 0.57195,0.4974 0.41094,0.63691 0.49462,0.76662 0.50086,0.77935 0.5204,0.96327 0.3872,1.0241 0.261,0.88889 0.25547,0.87584 0.21224,0.72765 0.00136,0.75797 0.00164,0.91234 0,0.92641 -0.08299,1.0917 -0.22794,1.07086 -0.261,0.88889 -0.25861,0.87492 -0.21485,0.72689 -0.40865,0.63838 -0.49187,0.76839 -0.50086,0.77935 -0.66004,0.87353 -0.77071,0.77763 -0.70014,0.60667 -0.69057,0.59622 -0.57373,0.49534 -0.68891,0.31611 -0.82921,0.38049 -0.8427,0.38485 -1.02752,0.37802 -1.06878,0.23751 l 0.1518,-0.10567 0.01369,-0.00362 0.15284,-0.0217 v -0.21304 l -0.15284,-0.0217 -0.01369,-0.00362 -0.1518,-0.10567 0.04126,-0.14051 0.18482,-0.00683 0.01349,0.00436 0.1403,0.06438 0.11518,-0.17923 -0.11684,-0.10088 -0.00957,-0.01045 -0.07057,-0.17096 0.11067,-0.0959 0.15918,0.09418 0.00899,0.01096 0.08322,0.13001 0.1938,-0.08851 L -0.25861,-0.87492 -0.261,-0.88889 -0.22794,-1.07086 -0.08299,-1.0917 0,-0.92641 0.00164,-0.91234 0.00136,-0.75797 0.21224,-0.72765 0.25547,-0.87584 0.261,-0.88889 0.3872,-1.0241 0.5204,-0.96327 0.50086,-0.77935 0.49462,-0.76662 0.41094,-0.63691 0.57195,-0.4974 0.68843,-0.59869 0.70014,-0.60667 0.8794,-0.65219 0.95857,-0.529 0.8427,-0.38485 0.83057,-0.37751 0.69004,-0.31364 Z"
         id="path1480" />
      <circle
         style="fill:none;fill-opacity:1;stroke-width:0.264583"
         id="path1482"
         cx="0"
         cy="0"
         r="0.66145831" />
    </g>
  </g>
</svg>
